<mxfile host="Electron" agent="Mozilla/5.0 (Windows NT 10.0; Win64; x64) AppleWebKit/537.36 (KHTML, like Gecko) draw.io/24.7.8 Chrome/128.0.6613.36 Electron/32.0.1 Safari/537.36" version="24.7.8" pages="3">
  <diagram name="lock state" id="e7e014a7-5840-1c2e-5031-d8a46d1fe8dd">
    <mxGraphModel dx="1434" dy="844" grid="1" gridSize="10" guides="1" tooltips="1" connect="1" arrows="1" fold="1" page="1" pageScale="1" pageWidth="1169" pageHeight="826" background="none" math="0" shadow="0">
      <root>
        <mxCell id="0" />
        <mxCell id="1" parent="0" />
        <mxCell id="2" value="Source" style="swimlane;whiteSpace=wrap" parent="1" vertex="1">
          <mxGeometry x="179" y="120" width="350" height="1030" as="geometry" />
        </mxCell>
        <mxCell id="5" value="" style="ellipse;shape=startState;fillColor=#000000;strokeColor=#ff0000;" parent="2" vertex="1">
          <mxGeometry x="131" y="40" width="30" height="30" as="geometry" />
        </mxCell>
        <mxCell id="6" value="" style="edgeStyle=elbowEdgeStyle;elbow=horizontal;verticalAlign=bottom;endArrow=open;endSize=8;strokeColor=#FF0000;endFill=1;rounded=0;entryX=0.5;entryY=0;entryDx=0;entryDy=0;" parent="2" source="5" target="sy2Yfq8g4SEPvDYKYlY_-53" edge="1">
          <mxGeometry x="100" y="40" as="geometry">
            <mxPoint x="146" y="160" as="targetPoint" />
          </mxGeometry>
        </mxCell>
        <mxCell id="5YRIYOnIGHO2y424pPSx-42" value="snapshot support" style="rhombus;whiteSpace=wrap;html=1;" parent="2" vertex="1">
          <mxGeometry x="80" y="425" width="80" height="80" as="geometry" />
        </mxCell>
        <mxCell id="5YRIYOnIGHO2y424pPSx-43" value="create snapshot,and remove the snapshot when finish" style="rounded=0;whiteSpace=wrap;html=1;" parent="2" vertex="1">
          <mxGeometry x="55" y="536" width="110" height="80" as="geometry" />
        </mxCell>
        <mxCell id="5YRIYOnIGHO2y424pPSx-44" value="" style="edgeStyle=elbowEdgeStyle;elbow=horizontal;strokeColor=#FF0000;endArrow=open;endFill=1;rounded=0;entryX=0;entryY=0.5;entryDx=0;entryDy=0;exitX=0;exitY=0.5;exitDx=0;exitDy=0;" parent="2" target="5YRIYOnIGHO2y424pPSx-43" edge="1">
          <mxGeometry width="100" height="100" relative="1" as="geometry">
            <mxPoint x="80" y="466" as="sourcePoint" />
            <mxPoint x="55" y="576" as="targetPoint" />
            <Array as="points">
              <mxPoint x="45" y="526" />
            </Array>
          </mxGeometry>
        </mxCell>
        <mxCell id="5YRIYOnIGHO2y424pPSx-45" value="Y" style="edgeLabel;html=1;align=center;verticalAlign=middle;resizable=0;points=[];" parent="5YRIYOnIGHO2y424pPSx-44" vertex="1" connectable="0">
          <mxGeometry x="0.2358" y="1" relative="1" as="geometry">
            <mxPoint as="offset" />
          </mxGeometry>
        </mxCell>
        <mxCell id="5YRIYOnIGHO2y424pPSx-47" value="" style="edgeStyle=orthogonalEdgeStyle;elbow=horizontal;strokeColor=#FF0000;endArrow=open;endFill=1;rounded=0;exitX=1;exitY=0.5;exitDx=0;exitDy=0;entryX=0.5;entryY=0;entryDx=0;entryDy=0;" parent="2" target="5YRIYOnIGHO2y424pPSx-49" edge="1">
          <mxGeometry width="100" height="100" relative="1" as="geometry">
            <mxPoint x="160" y="466" as="sourcePoint" />
            <mxPoint x="151.25" y="616" as="targetPoint" />
          </mxGeometry>
        </mxCell>
        <mxCell id="5YRIYOnIGHO2y424pPSx-48" value="N" style="edgeLabel;html=1;align=center;verticalAlign=middle;resizable=0;points=[];" parent="5YRIYOnIGHO2y424pPSx-47" vertex="1" connectable="0">
          <mxGeometry x="0.2358" y="1" relative="1" as="geometry">
            <mxPoint as="offset" />
          </mxGeometry>
        </mxCell>
        <mxCell id="5YRIYOnIGHO2y424pPSx-49" value="mv/cp?" style="rhombus;whiteSpace=wrap;html=1;" parent="2" vertex="1">
          <mxGeometry x="174" y="606" width="116" height="50" as="geometry" />
        </mxCell>
        <mxCell id="5YRIYOnIGHO2y424pPSx-50" value="modify the state with selection by user" style="rounded=0;whiteSpace=wrap;html=1;" parent="2" vertex="1">
          <mxGeometry x="175" y="696" width="80" height="60" as="geometry" />
        </mxCell>
        <mxCell id="5YRIYOnIGHO2y424pPSx-51" value="" style="edgeStyle=elbowEdgeStyle;elbow=horizontal;verticalAlign=bottom;endArrow=open;endSize=8;strokeColor=#FF0000;endFill=1;rounded=0;exitX=0.5;exitY=1;exitDx=0;exitDy=0;" parent="2" edge="1" target="5YRIYOnIGHO2y424pPSx-50" source="5YRIYOnIGHO2y424pPSx-49">
          <mxGeometry x="30" y="-100" as="geometry">
            <mxPoint x="214" y="696" as="targetPoint" />
            <mxPoint x="214" y="656" as="sourcePoint" />
          </mxGeometry>
        </mxCell>
        <mxCell id="5YRIYOnIGHO2y424pPSx-52" value="Y" style="edgeLabel;html=1;align=center;verticalAlign=middle;resizable=0;points=[];" parent="5YRIYOnIGHO2y424pPSx-51" vertex="1" connectable="0">
          <mxGeometry relative="1" as="geometry">
            <mxPoint y="-11" as="offset" />
          </mxGeometry>
        </mxCell>
        <mxCell id="5YRIYOnIGHO2y424pPSx-56" value="" style="edgeStyle=elbowEdgeStyle;strokeColor=#FF0000;endArrow=open;endFill=1;rounded=0;exitX=0.5;exitY=1;exitDx=0;exitDy=0;elbow=vertical;entryX=0.442;entryY=-0.033;entryDx=0;entryDy=0;entryPerimeter=0;" parent="2" source="5YRIYOnIGHO2y424pPSx-43" target="sy2Yfq8g4SEPvDYKYlY_-65" edge="1">
          <mxGeometry width="100" height="100" relative="1" as="geometry">
            <mxPoint x="80.5" y="1130" as="sourcePoint" />
            <mxPoint x="89" y="810" as="targetPoint" />
            <Array as="points">
              <mxPoint x="89" y="790" />
            </Array>
          </mxGeometry>
        </mxCell>
        <mxCell id="5YRIYOnIGHO2y424pPSx-59" value="save file when read,** files may be inconsistent" style="rounded=0;whiteSpace=wrap;html=1;" parent="2" vertex="1">
          <mxGeometry x="154" y="816" width="120" height="60" as="geometry" />
        </mxCell>
        <mxCell id="5YRIYOnIGHO2y424pPSx-61" value="" style="edgeStyle=elbowEdgeStyle;elbow=horizontal;strokeColor=#FF0000;endArrow=open;endFill=1;rounded=0;exitX=1;exitY=0.5;exitDx=0;exitDy=0;entryX=1;entryY=0.5;entryDx=0;entryDy=0;" parent="2" source="5YRIYOnIGHO2y424pPSx-49" target="5YRIYOnIGHO2y424pPSx-59" edge="1">
          <mxGeometry width="100" height="100" relative="1" as="geometry">
            <mxPoint x="176.5" y="626" as="sourcePoint" />
            <mxPoint x="431" y="630" as="targetPoint" />
            <Array as="points">
              <mxPoint x="304" y="736" />
            </Array>
          </mxGeometry>
        </mxCell>
        <mxCell id="5YRIYOnIGHO2y424pPSx-63" value="N" style="edgeLabel;html=1;align=center;verticalAlign=middle;resizable=0;points=[];" parent="5YRIYOnIGHO2y424pPSx-61" vertex="1" connectable="0">
          <mxGeometry x="0.1667" y="-1" relative="1" as="geometry">
            <mxPoint as="offset" />
          </mxGeometry>
        </mxCell>
        <mxCell id="5YRIYOnIGHO2y424pPSx-66" value="" style="edgeStyle=orthogonalEdgeStyle;strokeColor=#FF0000;endArrow=open;endFill=1;rounded=0;entryX=0.417;entryY=0;entryDx=0;entryDy=0;exitX=0;exitY=0.5;exitDx=0;exitDy=0;entryPerimeter=0;" parent="2" source="5YRIYOnIGHO2y424pPSx-50" target="sy2Yfq8g4SEPvDYKYlY_-65" edge="1">
          <mxGeometry width="100" height="100" relative="1" as="geometry">
            <mxPoint x="175.5" y="640" as="sourcePoint" />
            <mxPoint x="125" y="970" as="targetPoint" />
            <Array as="points">
              <mxPoint x="174" y="730" />
              <mxPoint x="121" y="730" />
              <mxPoint x="121" y="920" />
            </Array>
          </mxGeometry>
        </mxCell>
        <mxCell id="sy2Yfq8g4SEPvDYKYlY_-53" value="start_interface_service" style="rounded=0;whiteSpace=wrap;html=1;" parent="2" vertex="1">
          <mxGeometry x="70.5" y="102" width="151" height="40" as="geometry" />
        </mxCell>
        <mxCell id="sy2Yfq8g4SEPvDYKYlY_-54" value="original_state = source.prepare_state_for_lock()" style="rounded=0;whiteSpace=wrap;html=1;" parent="2" vertex="1">
          <mxGeometry x="29.5" y="180" width="240.5" height="39" as="geometry" />
        </mxCell>
        <mxCell id="sy2Yfq8g4SEPvDYKYlY_-58" value="" style="elbow=horizontal;strokeColor=#FF0000;endArrow=open;endFill=1;rounded=0;entryX=0.5;entryY=0;entryDx=0;entryDy=0;exitX=0.25;exitY=1;exitDx=0;exitDy=0;" parent="2" target="5YRIYOnIGHO2y424pPSx-42" edge="1">
          <mxGeometry width="100" height="100" relative="1" as="geometry">
            <mxPoint x="120" y="389" as="sourcePoint" />
            <mxPoint x="393" y="420.5" as="targetPoint" />
          </mxGeometry>
        </mxCell>
        <mxCell id="sy2Yfq8g4SEPvDYKYlY_-61" value="prepare source state for recover when backup complete" style="rounded=0;whiteSpace=wrap;html=1;" parent="2" vertex="1">
          <mxGeometry x="54.75" y="250" width="190" height="50" as="geometry" />
        </mxCell>
        <mxCell id="sy2Yfq8g4SEPvDYKYlY_-62" value="" style="elbow=horizontal;verticalAlign=bottom;endArrow=open;endSize=8;strokeColor=#FF0000;endFill=1;rounded=0;entryX=0.5;entryY=0;entryDx=0;entryDy=0;exitX=0.5;exitY=1;exitDx=0;exitDy=0;" parent="2" source="sy2Yfq8g4SEPvDYKYlY_-54" target="sy2Yfq8g4SEPvDYKYlY_-61" edge="1">
          <mxGeometry x="89" y="-80" as="geometry">
            <mxPoint x="100" y="112" as="targetPoint" />
            <mxPoint x="100" y="80" as="sourcePoint" />
          </mxGeometry>
        </mxCell>
        <mxCell id="sy2Yfq8g4SEPvDYKYlY_-63" value="lock_state = lock_data_source(original_state)" style="rounded=0;whiteSpace=wrap;html=1;" parent="2" vertex="1">
          <mxGeometry x="60" y="330" width="160" height="60" as="geometry" />
        </mxCell>
        <mxCell id="sy2Yfq8g4SEPvDYKYlY_-66" value="" style="edgeStyle=orthogonalEdgeStyle;strokeColor=#FF0000;endArrow=open;endFill=1;rounded=0;entryX=0.417;entryY=0;entryDx=0;entryDy=0;exitX=0;exitY=0.5;exitDx=0;exitDy=0;entryPerimeter=0;" parent="2" source="5YRIYOnIGHO2y424pPSx-59" target="sy2Yfq8g4SEPvDYKYlY_-65" edge="1">
          <mxGeometry width="100" height="100" relative="1" as="geometry">
            <mxPoint x="165" y="966" as="sourcePoint" />
            <mxPoint x="136" y="1090" as="targetPoint" />
            <Array as="points" />
          </mxGeometry>
        </mxCell>
        <mxCell id="sy2Yfq8g4SEPvDYKYlY_-65" value="locked_state" style="rounded=0;whiteSpace=wrap;html=1;" parent="2" vertex="1">
          <mxGeometry x="69" y="920" width="120" height="60" as="geometry" />
        </mxCell>
        <mxCell id="3" value="Engine" style="swimlane;whiteSpace=wrap" parent="1" vertex="1">
          <mxGeometry x="529" y="120" width="339" height="1030" as="geometry" />
        </mxCell>
        <mxCell id="13" value="" style="ellipse;shape=startState;fillColor=#000000;strokeColor=#ff0000;" parent="3" vertex="1">
          <mxGeometry x="140" y="40" width="30" height="30" as="geometry" />
        </mxCell>
        <mxCell id="14" value="" style="edgeStyle=elbowEdgeStyle;elbow=horizontal;verticalAlign=bottom;endArrow=open;endSize=8;strokeColor=#FF0000;endFill=1;rounded=0;entryX=0.5;entryY=0;entryDx=0;entryDy=0;" parent="3" edge="1">
          <mxGeometry x="40" y="20" as="geometry">
            <mxPoint x="155" y="100" as="targetPoint" />
            <mxPoint x="155" y="68.74772708486762" as="sourcePoint" />
          </mxGeometry>
        </mxCell>
        <mxCell id="sy2Yfq8g4SEPvDYKYlY_-55" value="engine.lock_source_state(task_info)" style="rounded=0;whiteSpace=wrap;html=1;" parent="3" vertex="1">
          <mxGeometry x="50" y="102" width="220" height="39" as="geometry" />
        </mxCell>
        <mxCell id="sy2Yfq8g4SEPvDYKYlY_-59" value="meta_db.save_original_state(original_state)" style="rounded=0;whiteSpace=wrap;html=1;" parent="3" vertex="1">
          <mxGeometry x="41.5" y="270" width="228.5" height="40" as="geometry" />
        </mxCell>
        <mxCell id="sy2Yfq8g4SEPvDYKYlY_-67" value="meta_db.save_locked_state(locked_state)" style="rounded=0;whiteSpace=wrap;html=1;" parent="3" vertex="1">
          <mxGeometry x="43" y="929" width="239.5" height="40" as="geometry" />
        </mxCell>
        <mxCell id="sy2Yfq8g4SEPvDYKYlY_-72" value="" style="elbow=horizontal;verticalAlign=bottom;endArrow=open;endSize=8;strokeColor=#FF0000;endFill=1;rounded=0;exitX=0.5;exitY=1;exitDx=0;exitDy=0;" parent="3" source="sy2Yfq8g4SEPvDYKYlY_-59" target="sy2Yfq8g4SEPvDYKYlY_-67" edge="1">
          <mxGeometry x="-321" y="-100" as="geometry">
            <mxPoint x="170" y="280" as="targetPoint" />
            <mxPoint x="170" y="150" as="sourcePoint" />
          </mxGeometry>
        </mxCell>
        <mxCell id="5YRIYOnIGHO2y424pPSx-40" value="" style="edgeStyle=elbowEdgeStyle;elbow=horizontal;strokeColor=#FF0000;endArrow=open;endFill=1;rounded=0;exitX=1;exitY=0.5;exitDx=0;exitDy=0;entryX=0;entryY=0.5;entryDx=0;entryDy=0;" parent="1" source="sy2Yfq8g4SEPvDYKYlY_-53" target="sy2Yfq8g4SEPvDYKYlY_-55" edge="1">
          <mxGeometry width="100" height="100" relative="1" as="geometry">
            <mxPoint x="312" y="683" as="sourcePoint" />
            <mxPoint x="388" y="320" as="targetPoint" />
            <Array as="points">
              <mxPoint x="538" y="240" />
            </Array>
          </mxGeometry>
        </mxCell>
        <mxCell id="JHUbbDQbZnptLvGb7uCV-39" value="" style="endArrow=classic;startArrow=classic;html=1;rounded=0;" parent="1" edge="1">
          <mxGeometry width="50" height="50" relative="1" as="geometry">
            <mxPoint x="468" y="170" as="sourcePoint" />
            <mxPoint x="578" y="170" as="targetPoint" />
          </mxGeometry>
        </mxCell>
        <mxCell id="JHUbbDQbZnptLvGb7uCV-40" value="http" style="edgeLabel;html=1;align=center;verticalAlign=middle;resizable=0;points=[];" parent="JHUbbDQbZnptLvGb7uCV-39" vertex="1" connectable="0">
          <mxGeometry x="0.4727" y="-1" relative="1" as="geometry">
            <mxPoint x="-20" as="offset" />
          </mxGeometry>
        </mxCell>
        <mxCell id="sy2Yfq8g4SEPvDYKYlY_-56" value="" style="elbow=horizontal;verticalAlign=bottom;endArrow=open;endSize=8;strokeColor=#FF0000;endFill=1;rounded=0;entryX=0.5;entryY=0;entryDx=0;entryDy=0;exitX=0.5;exitY=1;exitDx=0;exitDy=0;dashed=1;dashPattern=8 8;" parent="1" source="sy2Yfq8g4SEPvDYKYlY_-55" target="sy2Yfq8g4SEPvDYKYlY_-54" edge="1">
          <mxGeometry x="40" y="20" as="geometry">
            <mxPoint x="663" y="230" as="targetPoint" />
            <mxPoint x="648" y="270" as="sourcePoint" />
          </mxGeometry>
        </mxCell>
        <mxCell id="sy2Yfq8g4SEPvDYKYlY_-60" value="" style="elbow=horizontal;verticalAlign=bottom;endArrow=open;endSize=8;strokeColor=#FF0000;endFill=1;rounded=0;entryX=0;entryY=0.5;entryDx=0;entryDy=0;exitX=1;exitY=0.5;exitDx=0;exitDy=0;dashed=1;dashPattern=8 8;" parent="1" source="sy2Yfq8g4SEPvDYKYlY_-61" target="sy2Yfq8g4SEPvDYKYlY_-59" edge="1">
          <mxGeometry x="40" y="20" as="geometry">
            <mxPoint x="339" y="310" as="targetPoint" />
            <mxPoint x="668" y="270" as="sourcePoint" />
          </mxGeometry>
        </mxCell>
        <mxCell id="sy2Yfq8g4SEPvDYKYlY_-64" value="" style="elbow=horizontal;verticalAlign=bottom;endArrow=open;endSize=8;strokeColor=#FF0000;endFill=1;rounded=0;entryX=1;entryY=0.5;entryDx=0;entryDy=0;exitX=0.25;exitY=1;exitDx=0;exitDy=0;dashed=1;dashPattern=8 8;" parent="1" source="sy2Yfq8g4SEPvDYKYlY_-59" target="sy2Yfq8g4SEPvDYKYlY_-63" edge="1">
          <mxGeometry x="40" y="20" as="geometry">
            <mxPoint x="540" y="475" as="targetPoint" />
            <mxPoint x="424" y="460" as="sourcePoint" />
          </mxGeometry>
        </mxCell>
        <mxCell id="sy2Yfq8g4SEPvDYKYlY_-71" value="" style="elbow=horizontal;verticalAlign=bottom;endArrow=open;endSize=8;strokeColor=#FF0000;endFill=1;rounded=0;entryX=0.519;entryY=0;entryDx=0;entryDy=0;entryPerimeter=0;" parent="1" target="sy2Yfq8g4SEPvDYKYlY_-59" edge="1">
          <mxGeometry x="40" y="20" as="geometry">
            <mxPoint x="694" y="299" as="targetPoint" />
            <mxPoint x="689" y="260" as="sourcePoint" />
          </mxGeometry>
        </mxCell>
        <mxCell id="s8NFQ3CcIHVYRi8PXjll-39" value="" style="elbow=horizontal;verticalAlign=bottom;endArrow=open;endSize=8;strokeColor=#FF0000;endFill=1;rounded=0;entryX=0;entryY=0.5;entryDx=0;entryDy=0;exitX=1;exitY=0.5;exitDx=0;exitDy=0;dashed=1;dashPattern=8 8;" parent="1" source="sy2Yfq8g4SEPvDYKYlY_-65" target="sy2Yfq8g4SEPvDYKYlY_-67" edge="1">
          <mxGeometry x="40" y="20" as="geometry">
            <mxPoint x="555.25" y="1077.5" as="targetPoint" />
            <mxPoint x="408.25" y="1062.5" as="sourcePoint" />
          </mxGeometry>
        </mxCell>
      </root>
    </mxGraphModel>
  </diagram>
  <diagram id="yvwt4IpXn-BBu0UMZ8MR" name="folder-&gt;chunk">
    <mxGraphModel dx="1434" dy="844" grid="1" gridSize="10" guides="1" tooltips="1" connect="1" arrows="1" fold="1" page="1" pageScale="1" pageWidth="827" pageHeight="1169" math="0" shadow="0">
      <root>
        <mxCell id="0" />
        <mxCell id="1" parent="0" />
        <mxCell id="HdvkcxXdx9Ky_fbMJxZk-1" value="get the deepest untraversed folder" style="rounded=0;whiteSpace=wrap;html=1;" vertex="1" parent="1">
          <mxGeometry x="243" y="30" width="220" height="40" as="geometry" />
        </mxCell>
        <mxCell id="HdvkcxXdx9Ky_fbMJxZk-2" value="None" style="rhombus;whiteSpace=wrap;html=1;" vertex="1" parent="1">
          <mxGeometry x="550" y="100" width="120" height="50" as="geometry" />
        </mxCell>
        <mxCell id="HdvkcxXdx9Ky_fbMJxZk-3" value="" style="elbow=horizontal;verticalAlign=bottom;endArrow=open;endSize=8;strokeColor=#FF0000;endFill=1;rounded=0;entryX=0.5;entryY=0;entryDx=0;entryDy=0;exitX=1;exitY=0.5;exitDx=0;exitDy=0;" edge="1" parent="1" source="HdvkcxXdx9Ky_fbMJxZk-1" target="HdvkcxXdx9Ky_fbMJxZk-2">
          <mxGeometry x="-974" y="-340" as="geometry">
            <mxPoint x="958" y="-73" as="targetPoint" />
            <mxPoint x="563" y="-90" as="sourcePoint" />
            <Array as="points">
              <mxPoint x="610" y="50" />
            </Array>
          </mxGeometry>
        </mxCell>
        <mxCell id="HdvkcxXdx9Ky_fbMJxZk-4" value="item=folder.next()" style="rounded=0;whiteSpace=wrap;html=1;" vertex="1" parent="1">
          <mxGeometry x="264" y="102.5" width="124" height="45" as="geometry" />
        </mxCell>
        <mxCell id="HdvkcxXdx9Ky_fbMJxZk-5" value="" style="elbow=horizontal;verticalAlign=bottom;endArrow=open;endSize=8;strokeColor=#FF0000;endFill=1;rounded=0;entryX=1;entryY=0.5;entryDx=0;entryDy=0;exitX=0;exitY=0.5;exitDx=0;exitDy=0;" edge="1" parent="1" source="HdvkcxXdx9Ky_fbMJxZk-2" target="HdvkcxXdx9Ky_fbMJxZk-4">
          <mxGeometry x="-974" y="-340" as="geometry">
            <mxPoint x="900" y="-73" as="targetPoint" />
            <mxPoint x="445" y="125" as="sourcePoint" />
          </mxGeometry>
        </mxCell>
        <mxCell id="HdvkcxXdx9Ky_fbMJxZk-6" value="N" style="edgeLabel;html=1;align=center;verticalAlign=middle;resizable=0;points=[];" vertex="1" connectable="0" parent="HdvkcxXdx9Ky_fbMJxZk-5">
          <mxGeometry relative="1" as="geometry">
            <mxPoint x="41" as="offset" />
          </mxGeometry>
        </mxCell>
        <mxCell id="HdvkcxXdx9Ky_fbMJxZk-7" value="item.type" style="rhombus;whiteSpace=wrap;html=1;" vertex="1" parent="1">
          <mxGeometry x="213" y="190" width="226" height="50" as="geometry" />
        </mxCell>
        <mxCell id="HdvkcxXdx9Ky_fbMJxZk-8" value="" style="elbow=horizontal;verticalAlign=bottom;endArrow=open;endSize=8;strokeColor=#FF0000;endFill=1;rounded=0;entryX=0.5;entryY=0;entryDx=0;entryDy=0;exitX=0.5;exitY=1;exitDx=0;exitDy=0;" edge="1" parent="1" source="HdvkcxXdx9Ky_fbMJxZk-4" target="HdvkcxXdx9Ky_fbMJxZk-7">
          <mxGeometry x="-974" y="-340" as="geometry">
            <mxPoint x="900" y="-73" as="targetPoint" />
            <mxPoint x="505" y="-90" as="sourcePoint" />
          </mxGeometry>
        </mxCell>
        <mxCell id="HdvkcxXdx9Ky_fbMJxZk-9" value="add sub folder as untraversed" style="rounded=0;whiteSpace=wrap;html=1;" vertex="1" parent="1">
          <mxGeometry x="405" y="292" width="68" height="58" as="geometry" />
        </mxCell>
        <mxCell id="HdvkcxXdx9Ky_fbMJxZk-10" value="" style="elbow=horizontal;verticalAlign=bottom;endArrow=open;endSize=8;strokeColor=#FF0000;endFill=1;rounded=0;entryX=0.5;entryY=0;entryDx=0;entryDy=0;" edge="1" parent="1" target="HdvkcxXdx9Ky_fbMJxZk-9">
          <mxGeometry x="-974" y="-340" as="geometry">
            <mxPoint x="1126" y="-73" as="targetPoint" />
            <mxPoint x="439" y="215" as="sourcePoint" />
          </mxGeometry>
        </mxCell>
        <mxCell id="HdvkcxXdx9Ky_fbMJxZk-11" value="folder" style="edgeLabel;html=1;align=center;verticalAlign=middle;resizable=0;points=[];" vertex="1" connectable="0" parent="HdvkcxXdx9Ky_fbMJxZk-10">
          <mxGeometry relative="1" as="geometry">
            <mxPoint x="2" y="1" as="offset" />
          </mxGeometry>
        </mxCell>
        <mxCell id="HdvkcxXdx9Ky_fbMJxZk-12" value="add sub-item to folder" style="rounded=0;whiteSpace=wrap;html=1;" vertex="1" parent="1">
          <mxGeometry x="352" y="370" width="66" height="60" as="geometry" />
        </mxCell>
        <mxCell id="HdvkcxXdx9Ky_fbMJxZk-13" value="" style="elbow=horizontal;verticalAlign=bottom;endArrow=open;endSize=8;strokeColor=#FF0000;endFill=1;rounded=0;entryX=0.5;entryY=0;entryDx=0;entryDy=0;exitX=0;exitY=1;exitDx=0;exitDy=0;" edge="1" parent="1" target="HdvkcxXdx9Ky_fbMJxZk-12">
          <mxGeometry x="-844" y="-460" as="geometry">
            <mxPoint x="337" y="302" as="targetPoint" />
            <mxPoint x="383.5" y="227.5" as="sourcePoint" />
          </mxGeometry>
        </mxCell>
        <mxCell id="HdvkcxXdx9Ky_fbMJxZk-14" value="link" style="edgeLabel;html=1;align=center;verticalAlign=middle;resizable=0;points=[];" vertex="1" connectable="0" parent="HdvkcxXdx9Ky_fbMJxZk-13">
          <mxGeometry relative="1" as="geometry">
            <mxPoint x="2" y="1" as="offset" />
          </mxGeometry>
        </mxCell>
        <mxCell id="HdvkcxXdx9Ky_fbMJxZk-15" value="add diff | file as sub-item to foler" style="rounded=0;whiteSpace=wrap;html=1;" vertex="1" parent="1">
          <mxGeometry x="267" y="546" width="120" height="50" as="geometry" />
        </mxCell>
        <mxCell id="HdvkcxXdx9Ky_fbMJxZk-16" value="" style="elbow=horizontal;verticalAlign=bottom;endArrow=open;endSize=8;strokeColor=#FF0000;endFill=1;rounded=0;entryX=0.5;entryY=0;entryDx=0;entryDy=0;exitX=0.5;exitY=1;exitDx=0;exitDy=0;" edge="1" parent="1" target="HdvkcxXdx9Ky_fbMJxZk-18">
          <mxGeometry x="-714" y="-580" as="geometry">
            <mxPoint x="296" y="302" as="targetPoint" />
            <mxPoint x="327" y="240" as="sourcePoint" />
          </mxGeometry>
        </mxCell>
        <mxCell id="HdvkcxXdx9Ky_fbMJxZk-17" value="file" style="edgeLabel;html=1;align=center;verticalAlign=middle;resizable=0;points=[];" vertex="1" connectable="0" parent="HdvkcxXdx9Ky_fbMJxZk-16">
          <mxGeometry relative="1" as="geometry">
            <mxPoint x="2" y="1" as="offset" />
          </mxGeometry>
        </mxCell>
        <mxCell id="HdvkcxXdx9Ky_fbMJxZk-18" value="diff(file, prev-file)" style="shape=process;whiteSpace=wrap;html=1;backgroundOutline=1;" vertex="1" parent="1">
          <mxGeometry x="267" y="470" width="120" height="40" as="geometry" />
        </mxCell>
        <mxCell id="HdvkcxXdx9Ky_fbMJxZk-19" value="" style="elbow=horizontal;verticalAlign=bottom;endArrow=open;endSize=8;strokeColor=#FF0000;endFill=1;rounded=0;entryX=0.5;entryY=0;entryDx=0;entryDy=0;exitX=0.5;exitY=1;exitDx=0;exitDy=0;" edge="1" parent="1" source="HdvkcxXdx9Ky_fbMJxZk-18" target="HdvkcxXdx9Ky_fbMJxZk-15">
          <mxGeometry x="-584" y="-700" as="geometry">
            <mxPoint x="337" y="480" as="targetPoint" />
            <mxPoint x="337" y="250" as="sourcePoint" />
          </mxGeometry>
        </mxCell>
        <mxCell id="HdvkcxXdx9Ky_fbMJxZk-20" value="find pending chunk or generate new chunk" style="rounded=0;whiteSpace=wrap;html=1;" vertex="1" parent="1">
          <mxGeometry x="263" y="630" width="126" height="40" as="geometry" />
        </mxCell>
        <mxCell id="HdvkcxXdx9Ky_fbMJxZk-21" value="" style="elbow=horizontal;verticalAlign=bottom;endArrow=open;endSize=8;strokeColor=#FF0000;endFill=1;rounded=0;entryX=0.5;entryY=0;entryDx=0;entryDy=0;exitX=0.5;exitY=1;exitDx=0;exitDy=0;" edge="1" parent="1" source="HdvkcxXdx9Ky_fbMJxZk-15" target="HdvkcxXdx9Ky_fbMJxZk-20">
          <mxGeometry x="-454" y="-820" as="geometry">
            <mxPoint x="337" y="556" as="targetPoint" />
            <mxPoint x="337" y="520" as="sourcePoint" />
          </mxGeometry>
        </mxCell>
        <mxCell id="HdvkcxXdx9Ky_fbMJxZk-22" value="chunk.add(diff | file)" style="rounded=0;whiteSpace=wrap;html=1;" vertex="1" parent="1">
          <mxGeometry x="267" y="700" width="120" height="40" as="geometry" />
        </mxCell>
        <mxCell id="HdvkcxXdx9Ky_fbMJxZk-23" value="" style="elbow=horizontal;verticalAlign=bottom;endArrow=open;endSize=8;strokeColor=#FF0000;endFill=1;rounded=0;entryX=0.5;entryY=0;entryDx=0;entryDy=0;exitX=0.5;exitY=1;exitDx=0;exitDy=0;" edge="1" parent="1" source="HdvkcxXdx9Ky_fbMJxZk-20" target="HdvkcxXdx9Ky_fbMJxZk-22">
          <mxGeometry x="-324" y="-940" as="geometry">
            <mxPoint x="336" y="640" as="targetPoint" />
            <mxPoint x="337" y="606" as="sourcePoint" />
          </mxGeometry>
        </mxCell>
        <mxCell id="HdvkcxXdx9Ky_fbMJxZk-24" value="" style="elbow=horizontal;verticalAlign=bottom;endArrow=open;endSize=8;strokeColor=#FF0000;endFill=1;rounded=0;entryX=0.51;entryY=0;entryDx=0;entryDy=0;exitX=0.5;exitY=1;exitDx=0;exitDy=0;entryPerimeter=0;" edge="1" parent="1" source="HdvkcxXdx9Ky_fbMJxZk-22" target="HdvkcxXdx9Ky_fbMJxZk-25">
          <mxGeometry x="-194" y="-1060" as="geometry">
            <mxPoint x="328" y="770" as="targetPoint" />
            <mxPoint x="336" y="680" as="sourcePoint" />
          </mxGeometry>
        </mxCell>
        <mxCell id="HdvkcxXdx9Ky_fbMJxZk-25" value="chunk.is_full()" style="rhombus;whiteSpace=wrap;html=1;" vertex="1" parent="1">
          <mxGeometry x="274" y="770" width="104" height="60" as="geometry" />
        </mxCell>
        <mxCell id="HdvkcxXdx9Ky_fbMJxZk-26" value="Notify reader" style="rounded=0;whiteSpace=wrap;html=1;" vertex="1" parent="1">
          <mxGeometry x="267" y="860" width="120" height="40" as="geometry" />
        </mxCell>
        <mxCell id="HdvkcxXdx9Ky_fbMJxZk-27" value="" style="elbow=horizontal;verticalAlign=bottom;endArrow=open;endSize=8;strokeColor=#FF0000;endFill=1;rounded=0;entryX=0.5;entryY=0;entryDx=0;entryDy=0;exitX=0.5;exitY=1;exitDx=0;exitDy=0;" edge="1" parent="1" source="HdvkcxXdx9Ky_fbMJxZk-25" target="HdvkcxXdx9Ky_fbMJxZk-26">
          <mxGeometry x="-64" y="-1180" as="geometry">
            <mxPoint x="337" y="780" as="targetPoint" />
            <mxPoint x="337" y="750" as="sourcePoint" />
          </mxGeometry>
        </mxCell>
        <mxCell id="HdvkcxXdx9Ky_fbMJxZk-28" value="Y" style="edgeLabel;html=1;align=center;verticalAlign=middle;resizable=0;points=[];" vertex="1" connectable="0" parent="HdvkcxXdx9Ky_fbMJxZk-27">
          <mxGeometry relative="1" as="geometry">
            <mxPoint y="-5" as="offset" />
          </mxGeometry>
        </mxCell>
        <mxCell id="HdvkcxXdx9Ky_fbMJxZk-29" value="" style="elbow=horizontal;verticalAlign=bottom;endArrow=open;endSize=8;strokeColor=#FF0000;endFill=1;rounded=0;exitX=1;exitY=0.5;exitDx=0;exitDy=0;" edge="1" parent="1" source="HdvkcxXdx9Ky_fbMJxZk-9">
          <mxGeometry x="-844" y="-460" as="geometry">
            <mxPoint x="390" y="130" as="targetPoint" />
            <mxPoint x="415" y="60" as="sourcePoint" />
            <Array as="points">
              <mxPoint x="490" y="320" />
              <mxPoint x="490" y="130" />
            </Array>
          </mxGeometry>
        </mxCell>
        <mxCell id="HdvkcxXdx9Ky_fbMJxZk-30" value="" style="elbow=horizontal;verticalAlign=bottom;endArrow=open;endSize=8;strokeColor=#FF0000;endFill=1;rounded=0;exitX=1;exitY=0.5;exitDx=0;exitDy=0;" edge="1" parent="1" source="HdvkcxXdx9Ky_fbMJxZk-26">
          <mxGeometry x="-714" y="-580" as="geometry">
            <mxPoint x="390" y="130" as="targetPoint" />
            <mxPoint x="248" y="410" as="sourcePoint" />
            <Array as="points">
              <mxPoint x="452" y="880" />
              <mxPoint x="490" y="880" />
              <mxPoint x="490" y="130" />
            </Array>
          </mxGeometry>
        </mxCell>
        <mxCell id="HdvkcxXdx9Ky_fbMJxZk-31" value="" style="elbow=horizontal;verticalAlign=bottom;endArrow=open;endSize=8;strokeColor=#FF0000;endFill=1;rounded=0;exitX=1;exitY=0.5;exitDx=0;exitDy=0;" edge="1" parent="1" source="HdvkcxXdx9Ky_fbMJxZk-25">
          <mxGeometry x="-714" y="-580" as="geometry">
            <mxPoint x="390" y="120" as="targetPoint" />
            <mxPoint x="272" y="800" as="sourcePoint" />
            <Array as="points">
              <mxPoint x="442" y="800" />
              <mxPoint x="490" y="800" />
              <mxPoint x="490" y="120" />
            </Array>
          </mxGeometry>
        </mxCell>
        <mxCell id="HdvkcxXdx9Ky_fbMJxZk-32" value="N" style="edgeLabel;html=1;align=center;verticalAlign=middle;resizable=0;points=[];" vertex="1" connectable="0" parent="HdvkcxXdx9Ky_fbMJxZk-31">
          <mxGeometry relative="1" as="geometry">
            <mxPoint x="-82" y="326" as="offset" />
          </mxGeometry>
        </mxCell>
        <mxCell id="HdvkcxXdx9Ky_fbMJxZk-33" value="" style="elbow=horizontal;verticalAlign=bottom;endArrow=open;endSize=8;strokeColor=#FF0000;endFill=1;rounded=0;exitX=0;exitY=0.5;exitDx=0;exitDy=0;entryX=0;entryY=0.5;entryDx=0;entryDy=0;" edge="1" parent="1" source="HdvkcxXdx9Ky_fbMJxZk-7" target="HdvkcxXdx9Ky_fbMJxZk-1">
          <mxGeometry x="-584" y="-700" as="geometry">
            <mxPoint x="460" y="150" as="targetPoint" />
            <mxPoint x="455" y="890" as="sourcePoint" />
            <Array as="points">
              <mxPoint x="180" y="215" />
              <mxPoint x="180" y="50" />
            </Array>
          </mxGeometry>
        </mxCell>
        <mxCell id="HdvkcxXdx9Ky_fbMJxZk-34" value="None" style="edgeLabel;html=1;align=center;verticalAlign=middle;resizable=0;points=[];" vertex="1" connectable="0" parent="HdvkcxXdx9Ky_fbMJxZk-33">
          <mxGeometry relative="1" as="geometry">
            <mxPoint x="25" y="68" as="offset" />
          </mxGeometry>
        </mxCell>
        <mxCell id="HdvkcxXdx9Ky_fbMJxZk-35" value="" style="elbow=horizontal;verticalAlign=bottom;endArrow=open;endSize=8;strokeColor=#FF0000;endFill=1;rounded=0;exitX=1;exitY=0.5;exitDx=0;exitDy=0;entryX=1;entryY=0.5;entryDx=0;entryDy=0;" edge="1" parent="1" source="HdvkcxXdx9Ky_fbMJxZk-12" target="HdvkcxXdx9Ky_fbMJxZk-4">
          <mxGeometry x="-714" y="-580" as="geometry">
            <mxPoint x="390" y="130" as="targetPoint" />
            <mxPoint x="189" y="331" as="sourcePoint" />
            <Array as="points">
              <mxPoint x="490" y="400" />
              <mxPoint x="490" y="125" />
            </Array>
          </mxGeometry>
        </mxCell>
        <mxCell id="HdvkcxXdx9Ky_fbMJxZk-36" value="get deepest unfinish folder" style="rounded=0;whiteSpace=wrap;html=1;" vertex="1" parent="1">
          <mxGeometry x="540" y="190" width="160" height="60" as="geometry" />
        </mxCell>
        <mxCell id="HdvkcxXdx9Ky_fbMJxZk-37" value="" style="elbow=horizontal;verticalAlign=bottom;endArrow=open;endSize=8;strokeColor=#FF0000;endFill=1;rounded=0;exitX=0.5;exitY=1;exitDx=0;exitDy=0;entryX=0.444;entryY=-0.017;entryDx=0;entryDy=0;entryPerimeter=0;" edge="1" parent="1" source="HdvkcxXdx9Ky_fbMJxZk-2" target="HdvkcxXdx9Ky_fbMJxZk-36">
          <mxGeometry x="-1470" y="-460" as="geometry">
            <mxPoint x="1106" y="6" as="targetPoint" />
            <mxPoint x="1107" y="-48" as="sourcePoint" />
          </mxGeometry>
        </mxCell>
        <mxCell id="HdvkcxXdx9Ky_fbMJxZk-38" value="Y" style="edgeLabel;html=1;align=center;verticalAlign=middle;resizable=0;points=[];" vertex="1" connectable="0" parent="HdvkcxXdx9Ky_fbMJxZk-37">
          <mxGeometry relative="1" as="geometry">
            <mxPoint x="1" y="-2" as="offset" />
          </mxGeometry>
        </mxCell>
        <mxCell id="HdvkcxXdx9Ky_fbMJxZk-39" value="generate meta of folder" style="rounded=0;whiteSpace=wrap;html=1;" vertex="1" parent="1">
          <mxGeometry x="540" y="393" width="160" height="37" as="geometry" />
        </mxCell>
        <mxCell id="HdvkcxXdx9Ky_fbMJxZk-40" value="" style="elbow=horizontal;verticalAlign=bottom;endArrow=open;endSize=8;strokeColor=#FF0000;endFill=1;rounded=0;exitX=0.5;exitY=1;exitDx=0;exitDy=0;entryX=0.5;entryY=0;entryDx=0;entryDy=0;" edge="1" parent="1" source="HdvkcxXdx9Ky_fbMJxZk-36" target="HdvkcxXdx9Ky_fbMJxZk-41">
          <mxGeometry x="-454" y="-820" as="geometry">
            <mxPoint x="640" y="280" as="targetPoint" />
            <mxPoint x="337" y="520" as="sourcePoint" />
          </mxGeometry>
        </mxCell>
        <mxCell id="HdvkcxXdx9Ky_fbMJxZk-41" value="folder.is_none()" style="rhombus;whiteSpace=wrap;html=1;" vertex="1" parent="1">
          <mxGeometry x="564" y="281" width="110" height="39" as="geometry" />
        </mxCell>
        <mxCell id="HdvkcxXdx9Ky_fbMJxZk-42" value="" style="elbow=horizontal;verticalAlign=bottom;endArrow=open;endSize=8;strokeColor=#FF0000;endFill=1;rounded=0;exitX=0.5;exitY=1;exitDx=0;exitDy=0;entryX=0.5;entryY=0;entryDx=0;entryDy=0;" edge="1" parent="1" source="HdvkcxXdx9Ky_fbMJxZk-41" target="HdvkcxXdx9Ky_fbMJxZk-39">
          <mxGeometry x="-324" y="-940" as="geometry">
            <mxPoint x="629" y="291" as="targetPoint" />
            <mxPoint x="630" y="260" as="sourcePoint" />
          </mxGeometry>
        </mxCell>
        <mxCell id="HdvkcxXdx9Ky_fbMJxZk-43" value="N" style="edgeLabel;html=1;align=center;verticalAlign=middle;resizable=0;points=[];" vertex="1" connectable="0" parent="HdvkcxXdx9Ky_fbMJxZk-42">
          <mxGeometry relative="1" as="geometry">
            <mxPoint x="2" y="-1" as="offset" />
          </mxGeometry>
        </mxCell>
        <mxCell id="HdvkcxXdx9Ky_fbMJxZk-44" value="find pending chunk or generate new chunk" style="rounded=0;whiteSpace=wrap;html=1;" vertex="1" parent="1">
          <mxGeometry x="559" y="460" width="126" height="40" as="geometry" />
        </mxCell>
        <mxCell id="HdvkcxXdx9Ky_fbMJxZk-45" value="chunk.add(folder)" style="rounded=0;whiteSpace=wrap;html=1;" vertex="1" parent="1">
          <mxGeometry x="561" y="531" width="120" height="34" as="geometry" />
        </mxCell>
        <mxCell id="HdvkcxXdx9Ky_fbMJxZk-46" value="chunk.is_full()" style="rhombus;whiteSpace=wrap;html=1;" vertex="1" parent="1">
          <mxGeometry x="569" y="592" width="104" height="60" as="geometry" />
        </mxCell>
        <mxCell id="HdvkcxXdx9Ky_fbMJxZk-47" value="Notify reader" style="rounded=0;whiteSpace=wrap;html=1;" vertex="1" parent="1">
          <mxGeometry x="560" y="679" width="120" height="40" as="geometry" />
        </mxCell>
        <mxCell id="HdvkcxXdx9Ky_fbMJxZk-48" value="" style="elbow=horizontal;verticalAlign=bottom;endArrow=open;endSize=8;strokeColor=#FF0000;endFill=1;rounded=0;exitX=0.5;exitY=1;exitDx=0;exitDy=0;" edge="1" parent="1" source="HdvkcxXdx9Ky_fbMJxZk-39" target="HdvkcxXdx9Ky_fbMJxZk-44">
          <mxGeometry x="-324" y="-940" as="geometry">
            <mxPoint x="629" y="291" as="targetPoint" />
            <mxPoint x="630" y="260" as="sourcePoint" />
          </mxGeometry>
        </mxCell>
        <mxCell id="HdvkcxXdx9Ky_fbMJxZk-49" value="" style="elbow=horizontal;verticalAlign=bottom;endArrow=open;endSize=8;strokeColor=#FF0000;endFill=1;rounded=0;exitX=0.5;exitY=1;exitDx=0;exitDy=0;entryX=0.5;entryY=0;entryDx=0;entryDy=0;" edge="1" parent="1" source="HdvkcxXdx9Ky_fbMJxZk-44" target="HdvkcxXdx9Ky_fbMJxZk-45">
          <mxGeometry x="-194" y="-1060" as="geometry">
            <mxPoint x="631" y="470" as="targetPoint" />
            <mxPoint x="630" y="440" as="sourcePoint" />
          </mxGeometry>
        </mxCell>
        <mxCell id="HdvkcxXdx9Ky_fbMJxZk-50" value="" style="elbow=horizontal;verticalAlign=bottom;endArrow=open;endSize=8;strokeColor=#FF0000;endFill=1;rounded=0;exitX=0.5;exitY=1;exitDx=0;exitDy=0;entryX=0.5;entryY=0;entryDx=0;entryDy=0;" edge="1" parent="1" source="HdvkcxXdx9Ky_fbMJxZk-45" target="HdvkcxXdx9Ky_fbMJxZk-46">
          <mxGeometry x="-64" y="-1180" as="geometry">
            <mxPoint x="631" y="541" as="targetPoint" />
            <mxPoint x="632" y="510" as="sourcePoint" />
          </mxGeometry>
        </mxCell>
        <mxCell id="HdvkcxXdx9Ky_fbMJxZk-51" value="" style="elbow=horizontal;verticalAlign=bottom;endArrow=open;endSize=8;strokeColor=#FF0000;endFill=1;rounded=0;exitX=0.5;exitY=1;exitDx=0;exitDy=0;entryX=0.5;entryY=0;entryDx=0;entryDy=0;" edge="1" parent="1" source="HdvkcxXdx9Ky_fbMJxZk-46" target="HdvkcxXdx9Ky_fbMJxZk-47">
          <mxGeometry x="66" y="-1300" as="geometry">
            <mxPoint x="631" y="602" as="targetPoint" />
            <mxPoint x="631" y="575" as="sourcePoint" />
          </mxGeometry>
        </mxCell>
        <mxCell id="HdvkcxXdx9Ky_fbMJxZk-52" value="Y" style="edgeLabel;html=1;align=center;verticalAlign=middle;resizable=0;points=[];" vertex="1" connectable="0" parent="HdvkcxXdx9Ky_fbMJxZk-51">
          <mxGeometry relative="1" as="geometry">
            <mxPoint y="-4" as="offset" />
          </mxGeometry>
        </mxCell>
        <mxCell id="HdvkcxXdx9Ky_fbMJxZk-53" value="" style="elbow=horizontal;verticalAlign=bottom;endArrow=open;endSize=8;strokeColor=#FF0000;endFill=1;rounded=0;exitX=0;exitY=0.5;exitDx=0;exitDy=0;entryX=0;entryY=0.5;entryDx=0;entryDy=0;" edge="1" parent="1" source="HdvkcxXdx9Ky_fbMJxZk-46" target="HdvkcxXdx9Ky_fbMJxZk-36">
          <mxGeometry x="-324" y="-940" as="geometry">
            <mxPoint x="629" y="291" as="targetPoint" />
            <mxPoint x="630" y="260" as="sourcePoint" />
            <Array as="points">
              <mxPoint x="520" y="622" />
              <mxPoint x="520" y="220" />
            </Array>
          </mxGeometry>
        </mxCell>
        <mxCell id="HdvkcxXdx9Ky_fbMJxZk-54" value="N" style="edgeLabel;html=1;align=center;verticalAlign=middle;resizable=0;points=[];" vertex="1" connectable="0" parent="HdvkcxXdx9Ky_fbMJxZk-53">
          <mxGeometry relative="1" as="geometry">
            <mxPoint x="24" y="185" as="offset" />
          </mxGeometry>
        </mxCell>
        <mxCell id="HdvkcxXdx9Ky_fbMJxZk-55" value="all chunk full" style="ellipse;whiteSpace=wrap;html=1;" vertex="1" parent="1">
          <mxGeometry x="635" y="330" width="80" height="50" as="geometry" />
        </mxCell>
        <mxCell id="HdvkcxXdx9Ky_fbMJxZk-56" value="" style="elbow=horizontal;verticalAlign=bottom;endArrow=open;endSize=8;strokeColor=#FF0000;endFill=1;rounded=0;exitX=1;exitY=0.5;exitDx=0;exitDy=0;" edge="1" parent="1" source="HdvkcxXdx9Ky_fbMJxZk-41" target="HdvkcxXdx9Ky_fbMJxZk-55">
          <mxGeometry x="-194" y="-1060" as="geometry">
            <mxPoint x="630" y="403" as="targetPoint" />
            <mxPoint x="629" y="330" as="sourcePoint" />
          </mxGeometry>
        </mxCell>
        <mxCell id="HdvkcxXdx9Ky_fbMJxZk-57" value="Y" style="edgeLabel;html=1;align=center;verticalAlign=middle;resizable=0;points=[];" vertex="1" connectable="0" parent="HdvkcxXdx9Ky_fbMJxZk-56">
          <mxGeometry relative="1" as="geometry">
            <mxPoint x="2" y="-1" as="offset" />
          </mxGeometry>
        </mxCell>
        <mxCell id="HdvkcxXdx9Ky_fbMJxZk-58" value="" style="elbow=horizontal;verticalAlign=bottom;endArrow=open;endSize=8;strokeColor=#FF0000;endFill=1;rounded=0;exitX=0;exitY=0.5;exitDx=0;exitDy=0;" edge="1" parent="1" source="HdvkcxXdx9Ky_fbMJxZk-47">
          <mxGeometry x="-324" y="-940" as="geometry">
            <mxPoint x="540" y="220" as="targetPoint" />
            <mxPoint x="579" y="632" as="sourcePoint" />
            <Array as="points">
              <mxPoint x="520" y="700" />
              <mxPoint x="520" y="220" />
            </Array>
          </mxGeometry>
        </mxCell>
      </root>
    </mxGraphModel>
  </diagram>
  <diagram id="Hd_UIno6OFt5BFw53y-9" name="transfer">
    <mxGraphModel dx="1434" dy="844" grid="1" gridSize="10" guides="1" tooltips="1" connect="1" arrows="1" fold="1" page="1" pageScale="1" pageWidth="827" pageHeight="1169" math="0" shadow="0">
      <root>
        <mxCell id="0" />
        <mxCell id="1" parent="0" />
        <mxCell id="-4PhcrWSjpY6onHZDT_L-27" value="Source" style="swimlane;whiteSpace=wrap" parent="1" vertex="1">
          <mxGeometry x="8" y="120" width="272" height="1030" as="geometry" />
        </mxCell>
        <mxCell id="-4PhcrWSjpY6onHZDT_L-28" value="" style="ellipse;shape=startState;fillColor=#000000;strokeColor=#ff0000;" parent="-4PhcrWSjpY6onHZDT_L-27" vertex="1">
          <mxGeometry x="113" y="40" width="30" height="30" as="geometry" />
        </mxCell>
        <mxCell id="MoGsEpEergywANJcia5q-1" value="chunk_list=generate_chunks()" style="rounded=0;whiteSpace=wrap;html=1;" vertex="1" parent="-4PhcrWSjpY6onHZDT_L-27">
          <mxGeometry x="13" y="200" width="230" height="60" as="geometry" />
        </mxCell>
        <mxCell id="-4PhcrWSjpY6onHZDT_L-44" value="Engine" style="swimlane;whiteSpace=wrap" parent="1" vertex="1">
          <mxGeometry x="280" y="120" width="210" height="1030" as="geometry" />
        </mxCell>
        <mxCell id="-4PhcrWSjpY6onHZDT_L-47" value="" style="ellipse;shape=startState;fillColor=#000000;strokeColor=#ff0000;" parent="-4PhcrWSjpY6onHZDT_L-44" vertex="1">
          <mxGeometry x="73" y="30" width="30" height="30" as="geometry" />
        </mxCell>
        <mxCell id="-4PhcrWSjpY6onHZDT_L-48" value="" style="elbow=horizontal;verticalAlign=bottom;endArrow=open;endSize=8;strokeColor=#FF0000;endFill=1;rounded=0;" parent="-4PhcrWSjpY6onHZDT_L-44" source="-4PhcrWSjpY6onHZDT_L-47" target="-4PhcrWSjpY6onHZDT_L-73" edge="1">
          <mxGeometry x="-530" y="-100" as="geometry">
            <mxPoint x="58" y="182" as="targetPoint" />
            <mxPoint x="58.5" y="70" as="sourcePoint" />
          </mxGeometry>
        </mxCell>
        <mxCell id="-4PhcrWSjpY6onHZDT_L-67" value="" style="endArrow=classic;startArrow=classic;html=1;rounded=0;" parent="-4PhcrWSjpY6onHZDT_L-44" edge="1">
          <mxGeometry width="50" height="50" relative="1" as="geometry">
            <mxPoint x="-58.5" y="50" as="sourcePoint" />
            <mxPoint x="51.5" y="50" as="targetPoint" />
          </mxGeometry>
        </mxCell>
        <mxCell id="-4PhcrWSjpY6onHZDT_L-68" value="http" style="edgeLabel;html=1;align=center;verticalAlign=middle;resizable=0;points=[];" parent="-4PhcrWSjpY6onHZDT_L-67" vertex="1" connectable="0">
          <mxGeometry x="0.4727" y="-1" relative="1" as="geometry">
            <mxPoint x="-20" as="offset" />
          </mxGeometry>
        </mxCell>
        <mxCell id="-4PhcrWSjpY6onHZDT_L-73" value="transfer()" style="" parent="-4PhcrWSjpY6onHZDT_L-44" vertex="1">
          <mxGeometry x="30" y="110" width="116.5" height="50" as="geometry" />
        </mxCell>
        <mxCell id="-4PhcrWSjpY6onHZDT_L-81" value="" style="endArrow=classic;startArrow=classic;html=1;rounded=0;" parent="-4PhcrWSjpY6onHZDT_L-44" edge="1">
          <mxGeometry width="50" height="50" relative="1" as="geometry">
            <mxPoint x="170" y="54.5" as="sourcePoint" />
            <mxPoint x="280" y="54.5" as="targetPoint" />
          </mxGeometry>
        </mxCell>
        <mxCell id="-4PhcrWSjpY6onHZDT_L-82" value="http" style="edgeLabel;html=1;align=center;verticalAlign=middle;resizable=0;points=[];" parent="-4PhcrWSjpY6onHZDT_L-81" vertex="1" connectable="0">
          <mxGeometry x="0.4727" y="-1" relative="1" as="geometry">
            <mxPoint x="-20" as="offset" />
          </mxGeometry>
        </mxCell>
        <mxCell id="-4PhcrWSjpY6onHZDT_L-74" value="Target" style="swimlane;whiteSpace=wrap" parent="1" vertex="1">
          <mxGeometry x="490" y="120" width="330" height="1030" as="geometry" />
        </mxCell>
        <mxCell id="-4PhcrWSjpY6onHZDT_L-87" value="" style="ellipse;shape=startState;fillColor=#000000;strokeColor=#ff0000;" parent="-4PhcrWSjpY6onHZDT_L-74" vertex="1">
          <mxGeometry x="86" y="40" width="30" height="30" as="geometry" />
        </mxCell>
        <mxCell id="UcRBJYZxI0VlkUZ72HY5-2" value="transfer(chunk_list)" style="" vertex="1" parent="-4PhcrWSjpY6onHZDT_L-74">
          <mxGeometry x="85" y="222" width="144" height="50" as="geometry" />
        </mxCell>
        <mxCell id="UcRBJYZxI0VlkUZ72HY5-12" value="" style="edgeStyle=orthogonalEdgeStyle;rounded=0;orthogonalLoop=1;jettySize=auto;html=1;strokeColor=#FF0000;exitX=1;exitY=0.5;exitDx=0;exitDy=0;" edge="1" parent="-4PhcrWSjpY6onHZDT_L-74" source="UcRBJYZxI0VlkUZ72HY5-6" target="UcRBJYZxI0VlkUZ72HY5-10">
          <mxGeometry relative="1" as="geometry">
            <Array as="points">
              <mxPoint x="286" y="366" />
            </Array>
          </mxGeometry>
        </mxCell>
        <mxCell id="UcRBJYZxI0VlkUZ72HY5-13" value="no more" style="edgeLabel;html=1;align=center;verticalAlign=middle;resizable=0;points=[];" vertex="1" connectable="0" parent="UcRBJYZxI0VlkUZ72HY5-12">
          <mxGeometry x="-0.1892" y="2" relative="1" as="geometry">
            <mxPoint y="-110" as="offset" />
          </mxGeometry>
        </mxCell>
        <mxCell id="UcRBJYZxI0VlkUZ72HY5-15" value="" style="edgeStyle=orthogonalEdgeStyle;rounded=0;orthogonalLoop=1;jettySize=auto;html=1;strokeColor=#FF3333;" edge="1" parent="-4PhcrWSjpY6onHZDT_L-74" source="UcRBJYZxI0VlkUZ72HY5-6" target="UcRBJYZxI0VlkUZ72HY5-14">
          <mxGeometry relative="1" as="geometry" />
        </mxCell>
        <mxCell id="UcRBJYZxI0VlkUZ72HY5-16" value="more" style="edgeLabel;html=1;align=center;verticalAlign=middle;resizable=0;points=[];" vertex="1" connectable="0" parent="UcRBJYZxI0VlkUZ72HY5-15">
          <mxGeometry x="-0.1515" y="1" relative="1" as="geometry">
            <mxPoint as="offset" />
          </mxGeometry>
        </mxCell>
        <mxCell id="UcRBJYZxI0VlkUZ72HY5-6" value="chunk = chunk_list.next().await" style="rhombus;whiteSpace=wrap;html=1;" vertex="1" parent="-4PhcrWSjpY6onHZDT_L-74">
          <mxGeometry x="46" y="326" width="220" height="80" as="geometry" />
        </mxCell>
        <mxCell id="UcRBJYZxI0VlkUZ72HY5-7" value="" style="elbow=horizontal;verticalAlign=bottom;endArrow=open;endSize=8;strokeColor=#FF0000;endFill=1;rounded=0;exitX=0.5;exitY=1;exitDx=0;exitDy=0;" edge="1" parent="-4PhcrWSjpY6onHZDT_L-74" source="UcRBJYZxI0VlkUZ72HY5-2" target="UcRBJYZxI0VlkUZ72HY5-6">
          <mxGeometry x="-1600" y="-340" as="geometry">
            <mxPoint x="85" y="722" as="targetPoint" />
            <mxPoint x="85" y="292" as="sourcePoint" />
          </mxGeometry>
        </mxCell>
        <mxCell id="UcRBJYZxI0VlkUZ72HY5-10" value="Success" style="ellipse;whiteSpace=wrap;html=1;" vertex="1" parent="-4PhcrWSjpY6onHZDT_L-74">
          <mxGeometry x="250" y="580" width="60" height="64" as="geometry" />
        </mxCell>
        <mxCell id="UcRBJYZxI0VlkUZ72HY5-14" value="upload(chunk.reader())" style="rounded=0;whiteSpace=wrap;html=1;" vertex="1" parent="-4PhcrWSjpY6onHZDT_L-74">
          <mxGeometry x="96" y="472" width="120" height="60" as="geometry" />
        </mxCell>
        <mxCell id="UcRBJYZxI0VlkUZ72HY5-17" value="" style="elbow=horizontal;verticalAlign=bottom;endArrow=open;endSize=8;strokeColor=#FF0000;endFill=1;rounded=0;exitX=0;exitY=0.5;exitDx=0;exitDy=0;entryX=0;entryY=0.5;entryDx=0;entryDy=0;" edge="1" parent="-4PhcrWSjpY6onHZDT_L-74" source="UcRBJYZxI0VlkUZ72HY5-14" target="UcRBJYZxI0VlkUZ72HY5-6">
          <mxGeometry x="-2240" y="-460" as="geometry">
            <mxPoint x="265.58000000000004" y="586" as="targetPoint" />
            <mxPoint x="266.58000000000004" y="532" as="sourcePoint" />
            <Array as="points">
              <mxPoint x="30" y="502" />
              <mxPoint x="30" y="432" />
              <mxPoint x="30" y="366" />
            </Array>
          </mxGeometry>
        </mxCell>
        <mxCell id="UcRBJYZxI0VlkUZ72HY5-1" value="" style="elbow=horizontal;verticalAlign=bottom;endArrow=open;endSize=8;strokeColor=#FF0000;endFill=1;rounded=0;entryX=0.5;entryY=0;entryDx=0;entryDy=0;exitX=0.5;exitY=1;exitDx=0;exitDy=0;" edge="1" parent="1" source="-4PhcrWSjpY6onHZDT_L-73" target="MoGsEpEergywANJcia5q-1">
          <mxGeometry x="-960" y="-220" as="geometry">
            <mxPoint x="300.5" y="720" as="targetPoint" />
            <mxPoint x="300.5" y="290" as="sourcePoint" />
          </mxGeometry>
        </mxCell>
        <mxCell id="UcRBJYZxI0VlkUZ72HY5-3" value="" style="elbow=horizontal;verticalAlign=bottom;endArrow=open;endSize=8;strokeColor=#FF0000;endFill=1;rounded=0;entryX=0;entryY=0.5;entryDx=0;entryDy=0;exitX=1;exitY=0.5;exitDx=0;exitDy=0;" edge="1" parent="1" source="MoGsEpEergywANJcia5q-1" target="UcRBJYZxI0VlkUZ72HY5-2">
          <mxGeometry x="-960" y="-220" as="geometry">
            <mxPoint x="258" y="370" as="targetPoint" />
            <mxPoint x="542" y="340" as="sourcePoint" />
          </mxGeometry>
        </mxCell>
      </root>
    </mxGraphModel>
  </diagram>
</mxfile>
